<svg width="564" height="377" viewBox="0 0 564 377" fill="none" xmlns="http://www.w3.org/2000/svg">
<rect width="564" height="377" fill="#454545"/>
<g clip-path="url(#clip0_0_1)">
<rect width="564" height="377" rx="12" fill="url(#paint0_linear_0_1)"/>
<path d="M282.892 377C282.892 377 313.48 260.43 443.887 224.296C580.113 186.548 575.469 102.475 575.469 102.475" stroke="white" stroke-width="15" stroke-linecap="round"/>
<path d="M321.341 416.112C321.341 416.112 330.633 296.448 459.02 262.193C618.175 219.729 580.267 110.613 580.267 110.613" stroke="white" stroke-width="15" stroke-linecap="round"/>
<rect x="86.6503" y="65.0102" width="70.1047" height="54.4483" rx="8.94315" fill="#FFC400"/>
<line x1="122.031" y1="65.01" x2="122.04" y2="119.458" stroke="#764A2A" stroke-width="2"/>
<line x1="156.755" y1="92.2344" x2="86.6503" y2="92.2343" stroke="#764A2A" stroke-width="2"/>
<mask id="path-8-inside-1_0_1" fill="white">
<rect x="113.025" y="85.4816" width="16.0119" height="13.5054" rx="1.78863"/>
</mask>
<rect x="113.025" y="85.4816" width="16.0119" height="13.5054" rx="1.78863" fill="#FFC400" stroke="#764A2A" stroke-width="4" mask="url(#path-8-inside-1_0_1)"/>
<path d="M113.926 86.0564L106.966 80.453L86.6503 80.4291" stroke="#764A2A" stroke-width="2"/>
<path d="M128.145 87.3388L135.456 81.4535L156.755 81.3796" stroke="#764A2A" stroke-width="2"/>
<path d="M114.374 97.2857L108.61 103.622L86.7847 104.297" stroke="#764A2A" stroke-width="2"/>
<path d="M128.146 97.777L134.92 103.916L156.755 103.956" stroke="#764A2A" stroke-width="2"/>
<mask id="path-13-outside-2_0_1" maskUnits="userSpaceOnUse" x="400.585" y="37.3121" width="103" height="108" fill="black">
<rect fill="white" x="400.585" y="37.3121" width="103" height="108"/>
<path fill-rule="evenodd" clip-rule="evenodd" d="M456.139 42.0889C454.101 39.7198 450.433 39.7198 448.396 42.0889L439.7 52.2017C439.576 52.3453 439.383 52.4088 439.199 52.3666L426.196 49.3946C423.15 48.6983 420.199 50.8767 419.967 53.9926L419.003 66.9285C418.988 67.1201 418.868 67.2875 418.69 67.3616L406.723 72.3661C403.84 73.5716 402.707 77.0602 404.33 79.7299L411.261 91.1257C411.359 91.2875 411.36 91.4905 411.263 91.6531L404.418 103.101C402.815 105.783 403.975 109.263 406.866 110.446L418.871 115.36C419.049 115.433 419.171 115.6 419.187 115.791L420.248 128.719C420.504 131.834 423.471 133.99 426.512 133.271L439.492 130.201C439.676 130.157 439.869 130.219 439.994 130.362L448.766 140.409C450.821 142.762 454.489 142.735 456.509 140.351L464.892 130.452C465.016 130.305 465.212 130.241 465.399 130.285L478.023 133.271C481.063 133.99 484.031 131.834 484.287 128.719L485.378 115.426C485.393 115.238 485.512 115.073 485.686 114.999L497.953 109.76C500.826 108.533 501.933 105.036 500.29 102.379L493.466 91.3468C493.365 91.1834 493.364 90.977 493.464 90.8129L500.204 79.7299C501.828 77.0602 500.694 73.5716 497.812 72.3661L485.506 67.2204C485.332 67.1473 485.212 66.9836 485.195 66.7949L484.003 53.5104C483.724 50.3984 480.741 48.2646 477.705 49.0067L465.105 52.0872C464.918 52.1329 464.722 52.0698 464.596 51.9242L456.139 42.0889Z"/>
</mask>
<path d="M448.396 42.0889L446.609 40.5521V40.5521L448.396 42.0889ZM456.139 42.0889L454.352 43.6257L454.352 43.6257L456.139 42.0889ZM426.196 49.3946L426.721 47.0968L426.196 49.3946ZM419.967 53.9926L422.317 54.1678L419.967 53.9926ZM406.723 72.3661L405.814 70.1916L405.814 70.1916L406.723 72.3661ZM404.33 79.7299L402.316 80.9546L404.33 79.7299ZM404.418 103.101L402.395 101.891H402.395L404.418 103.101ZM406.866 110.446L405.973 112.628H405.973L406.866 110.446ZM420.248 128.719L422.597 128.527L420.248 128.719ZM426.512 133.271L427.054 135.564H427.054L426.512 133.271ZM448.766 140.409L450.542 138.859L448.766 140.409ZM456.509 140.351L454.71 138.827L456.509 140.351ZM478.023 133.271L478.565 130.977L478.023 133.271ZM484.287 128.719L481.938 128.527L484.287 128.719ZM497.953 109.76L497.027 107.593L497.953 109.76ZM500.29 102.379L498.285 103.619L500.29 102.379ZM500.204 79.7299L502.218 80.9546V80.9546L500.204 79.7299ZM497.812 72.3661L496.902 74.5406L497.812 72.3661ZM484.003 53.5104L481.656 53.721V53.721L484.003 53.5104ZM477.705 49.0067L477.146 46.7171L477.705 49.0067ZM465.105 52.0872L464.545 49.7976L465.105 52.0872ZM464.596 51.9242L462.809 53.4609L464.596 51.9242ZM485.506 67.2204L484.597 69.3949L485.506 67.2204ZM485.195 66.7949L487.543 66.5844L485.195 66.7949ZM493.466 91.3468L491.461 92.5866L493.466 91.3468ZM493.464 90.8129L495.478 92.0376L493.464 90.8129ZM485.378 115.426L483.029 115.234L485.378 115.426ZM485.686 114.999L484.761 112.831L485.686 114.999ZM464.892 130.452L463.093 128.929L464.892 130.452ZM465.399 130.285L465.942 127.991L465.399 130.285ZM439.492 130.201L438.949 127.907L439.492 130.201ZM439.994 130.362L438.218 131.912L439.994 130.362ZM418.871 115.36L417.978 117.542L418.871 115.36ZM419.187 115.791L421.536 115.598L419.187 115.791ZM411.261 91.1257L413.275 89.901L411.261 91.1257ZM411.263 91.6531L413.286 92.8626L411.263 91.6531ZM419.003 66.9285L416.652 66.7533L419.003 66.9285ZM418.69 67.3616L417.781 65.1871L418.69 67.3616ZM439.199 52.3666L438.673 54.6643L439.199 52.3666ZM450.183 43.6257C451.28 42.3502 453.255 42.3502 454.352 43.6257L457.926 40.5521C454.948 37.0894 449.587 37.0894 446.609 40.5521L450.183 43.6257ZM441.487 53.7385L450.183 43.6257L446.609 40.5521L437.912 50.6649L441.487 53.7385ZM425.671 51.6923L438.673 54.6643L439.724 50.0688L426.721 47.0968L425.671 51.6923ZM422.317 54.1678C422.442 52.4903 424.031 51.3175 425.671 51.6923L426.721 47.0968C422.269 46.0792 417.956 49.2632 417.616 53.8175L422.317 54.1678ZM421.353 67.1036L422.317 54.1678L417.616 53.8175L416.652 66.7533L421.353 67.1036ZM407.632 74.5406L419.6 69.5361L417.781 65.1871L405.814 70.1916L407.632 74.5406ZM406.344 78.5051C405.47 77.0679 406.08 75.1896 407.632 74.5406L405.814 70.1916C401.6 71.9535 399.943 77.0526 402.316 80.9546L406.344 78.5051ZM413.275 89.901L406.344 78.5051L402.316 80.9546L409.247 92.3505L413.275 89.901ZM406.441 104.31L413.286 92.8626L409.24 90.4435L402.395 101.891L406.441 104.31ZM407.759 108.265C406.202 107.628 405.578 105.754 406.441 104.31L402.395 101.891C400.052 105.811 401.747 110.897 405.973 112.628L407.759 108.265ZM419.764 113.179L407.759 108.265L405.973 112.628L417.978 117.542L419.764 113.179ZM422.597 128.527L421.536 115.598L416.837 115.984L417.899 128.912L422.597 128.527ZM425.969 130.977C424.332 131.364 422.735 130.203 422.597 128.527L417.899 128.912C418.273 133.464 422.61 136.615 427.054 135.564L425.969 130.977ZM438.949 127.907L425.969 130.977L427.054 135.564L440.034 132.494L438.949 127.907ZM450.542 138.859L441.769 128.812L438.218 131.912L446.991 141.959L450.542 138.859ZM454.71 138.827C453.623 140.111 451.648 140.126 450.542 138.859L446.991 141.959C449.994 145.399 455.356 145.359 458.307 141.874L454.71 138.827ZM463.093 128.929L454.71 138.827L458.307 141.874L466.691 131.975L463.093 128.929ZM478.565 130.977L465.942 127.991L464.857 132.579L477.48 135.564L478.565 130.977ZM481.938 128.527C481.8 130.203 480.202 131.364 478.565 130.977L477.48 135.564C481.924 136.615 486.262 133.464 486.636 128.912L481.938 128.527ZM483.029 115.234L481.938 128.527L486.636 128.912L487.727 115.619L483.029 115.234ZM497.027 107.593L484.761 112.831L486.612 117.166L498.878 111.928L497.027 107.593ZM498.285 103.619C499.17 105.049 498.574 106.932 497.027 107.593L498.878 111.928C503.078 110.134 504.697 105.023 502.294 101.139L498.285 103.619ZM491.461 92.5866L498.285 103.619L502.294 101.139L495.471 90.1069L491.461 92.5866ZM498.19 78.5051L491.45 89.5881L495.478 92.0376L502.218 80.9546L498.19 78.5051ZM496.902 74.5406C498.454 75.1896 499.065 77.0679 498.19 78.5051L502.218 80.9546C504.591 77.0526 502.934 71.9535 498.721 70.1916L496.902 74.5406ZM484.597 69.3949L496.902 74.5406L498.721 70.1916L486.416 65.0459L484.597 69.3949ZM481.656 53.721L482.847 67.0055L487.543 66.5844L486.351 53.2999L481.656 53.721ZM478.265 51.2962C479.899 50.8968 481.506 52.0455 481.656 53.721L486.351 53.2999C485.943 48.7512 481.582 45.6325 477.146 46.7171L478.265 51.2962ZM465.665 54.3768L478.265 51.2962L477.146 46.7171L464.545 49.7976L465.665 54.3768ZM454.352 43.6257L462.809 53.4609L466.383 50.3874L457.926 40.5521L454.352 43.6257ZM464.545 49.7976C465.22 49.6326 465.93 49.8605 466.383 50.3874L462.809 53.4609C463.513 54.2792 464.616 54.6331 465.665 54.3768L464.545 49.7976ZM486.416 65.0459C487.048 65.3101 487.481 65.9023 487.543 66.5844L482.847 67.0055C482.942 68.0648 483.616 68.9846 484.597 69.3949L486.416 65.0459ZM495.471 90.1069C495.836 90.6978 495.839 91.4439 495.478 92.0376L491.45 89.5881C490.889 90.5101 490.894 91.6689 491.461 92.5866L495.471 90.1069ZM487.727 115.619C487.671 116.302 487.242 116.897 486.612 117.166L484.761 112.831C483.783 113.249 483.116 114.173 483.029 115.234L487.727 115.619ZM466.691 131.975C466.242 132.505 465.533 132.739 464.857 132.579L465.942 127.991C464.892 127.743 463.791 128.105 463.093 128.929L466.691 131.975ZM440.034 132.494C439.368 132.652 438.669 132.428 438.218 131.912L441.769 128.812C441.07 128.01 439.984 127.662 438.949 127.907L440.034 132.494ZM417.978 117.542C417.335 117.279 416.894 116.677 416.837 115.984L421.536 115.598C421.447 114.523 420.763 113.588 419.764 113.179L417.978 117.542ZM409.247 92.3505C408.891 91.7653 408.888 91.0313 409.24 90.4435L413.286 92.8626C413.832 91.9497 413.827 90.8097 413.275 89.901L409.247 92.3505ZM416.652 66.7533C416.704 66.0604 417.14 65.4551 417.781 65.1871L419.6 69.5361C420.595 69.1198 421.273 68.1798 421.353 67.1036L416.652 66.7533ZM437.912 50.6649C438.359 50.1457 439.056 49.9162 439.724 50.0688L438.673 54.6643C439.71 54.9013 440.793 54.5449 441.487 53.7385L437.912 50.6649Z" fill="white" mask="url(#path-13-outside-2_0_1)"/>
<path d="M429.406 87.9216C428.437 87.9216 427.617 87.8967 426.946 87.847C426.3 87.7724 425.442 87.6606 424.374 87.5115L424.337 91.4256C424.312 92.0966 424.299 93.0534 424.299 94.2959C424.299 94.9421 424.113 95.4515 423.74 95.8243C423.392 96.1722 422.995 96.3462 422.547 96.3462C421.727 96.3462 421.118 96.2468 420.721 96.048C420.323 95.8243 420.124 95.4391 420.124 94.8924C420.124 94.1717 420.186 93.1528 420.311 91.8357C420.584 89.0026 420.721 86.095 420.721 83.1128C420.721 80.3294 420.634 77.7076 420.46 75.2473C420.485 74.8994 420.659 74.5018 420.982 74.0545C421.33 73.6071 421.764 73.3586 422.286 73.3089C422.858 73.3089 423.765 73.2095 425.008 73.0107C426.3 72.8119 427.282 72.7125 427.952 72.7125C429.99 72.7125 431.568 72.9113 432.687 73.3089C433.83 73.7065 434.973 74.3651 436.116 75.2846C437.359 77.223 437.98 78.5898 437.98 79.3851C437.98 81.0501 437.645 82.5288 436.974 83.8211C436.303 85.1133 435.321 86.1198 434.029 86.8405C432.736 87.5612 431.196 87.9216 429.406 87.9216ZM428.549 75.881C427.754 75.881 427.058 75.9307 426.461 76.0301C425.89 76.1047 425.194 76.2414 424.374 76.4402C424.473 78.7265 424.523 80.3916 424.523 81.4353C424.523 82.5039 424.486 83.3986 424.411 84.1193C425.48 84.3429 426.325 84.4921 426.946 84.5666C427.567 84.6163 428.263 84.6412 429.034 84.6412C430.873 84.6412 432.165 84.169 432.91 83.2246C433.681 82.2554 434.066 81.1371 434.066 79.8697C434.066 79.4969 433.954 79.0372 433.73 78.4904C433.507 77.9437 433.308 77.5834 433.134 77.4094C432.463 76.813 431.804 76.4153 431.158 76.2165C430.537 75.9929 429.667 75.881 428.549 75.881ZM451.746 72.6379C453.411 72.6379 454.927 72.8492 456.294 73.2716C457.661 73.6693 458.779 74.2657 459.649 75.0609C461.214 76.4775 462.308 78.0307 462.929 79.7206C463.575 81.3856 463.898 83.5229 463.898 86.1323C463.898 86.679 463.824 87.176 463.675 87.6233C463.551 88.0707 463.339 88.6422 463.041 89.3381C462.668 90.1085 462.445 90.7173 462.37 91.1647C461.873 92.0345 461.053 92.867 459.91 93.6622C458.791 94.4575 457.574 95.1036 456.257 95.6006C454.939 96.0977 453.784 96.3462 452.79 96.3462C447.994 96.3462 444.576 94.706 442.539 91.4256C441.967 90.5061 441.52 89.5493 441.197 88.5553C440.898 87.5612 440.749 86.592 440.749 85.6476C440.749 83.1128 441.197 80.9135 442.091 79.0496C443.011 77.1609 444.278 75.6947 445.894 74.6509C446.863 74.0793 447.869 73.6071 448.913 73.2344C449.982 72.8367 450.926 72.6379 451.746 72.6379ZM444.626 85.7595C444.626 87.1015 444.924 88.2073 445.521 89.0771C446.142 89.9469 447.086 90.8913 448.354 91.9102C449.398 92.3078 450.106 92.5688 450.479 92.693C450.851 92.7924 451.274 92.8421 451.746 92.8421C454.256 92.8421 456.257 92.1587 457.748 90.7919C459.239 89.4251 459.984 87.5488 459.984 85.163C459.984 83.2743 459.773 81.7833 459.351 80.6898C458.928 79.5963 458.17 78.6147 457.077 77.7449C456.505 77.2727 455.772 76.9248 454.877 76.7011C454.008 76.4775 453.063 76.3656 452.044 76.3656C450.504 76.3656 449.174 76.8254 448.056 77.7449C446.937 78.6395 446.08 79.8076 445.484 81.2489C444.912 82.6903 444.626 84.1938 444.626 85.7595ZM477.714 87.9216C476.744 87.9216 475.924 87.8967 475.253 87.847C474.607 87.7724 473.75 87.6606 472.681 87.5115L472.644 91.4256C472.619 92.0966 472.607 93.0534 472.607 94.2959C472.607 94.9421 472.42 95.4515 472.048 95.8243C471.7 96.1722 471.302 96.3462 470.855 96.3462C470.035 96.3462 469.426 96.2468 469.028 96.048C468.63 95.8243 468.432 95.4391 468.432 94.8924C468.432 94.1717 468.494 93.1528 468.618 91.8357C468.891 89.0026 469.028 86.095 469.028 83.1128C469.028 80.3294 468.941 77.7076 468.767 75.2473C468.792 74.8994 468.966 74.5018 469.289 74.0545C469.637 73.6071 470.072 73.3586 470.594 73.3089C471.165 73.3089 472.072 73.2095 473.315 73.0107C474.607 72.8119 475.589 72.7125 476.26 72.7125C478.298 72.7125 479.876 72.9113 480.994 73.3089C482.137 73.7065 483.28 74.3651 484.424 75.2846C485.666 77.223 486.287 78.5898 486.287 79.3851C486.287 81.0501 485.952 82.5288 485.281 83.8211C484.61 85.1133 483.628 86.1198 482.336 86.8405C481.044 87.5612 479.503 87.9216 477.714 87.9216ZM476.856 75.881C476.061 75.881 475.365 75.9307 474.769 76.0301C474.197 76.1047 473.501 76.2414 472.681 76.4402C472.781 78.7265 472.83 80.3916 472.83 81.4353C472.83 82.5039 472.793 83.3986 472.719 84.1193C473.787 84.3429 474.632 84.4921 475.253 84.5666C475.875 84.6163 476.571 84.6412 477.341 84.6412C479.18 84.6412 480.472 84.169 481.218 83.2246C481.988 82.2554 482.373 81.1371 482.373 79.8697C482.373 79.4969 482.262 79.0372 482.038 78.4904C481.814 77.9437 481.615 77.5834 481.441 77.4094C480.77 76.813 480.112 76.4153 479.466 76.2165C478.844 75.9929 477.975 75.881 476.856 75.881Z" fill="white"/>
<path d="M442.15 111.257C442.15 111.789 441.878 112.055 441.334 112.055C441.152 112.055 441.001 112.013 440.88 111.928C440.759 111.843 440.626 111.716 440.481 111.547C440.118 111.148 439.804 110.949 439.538 110.949C439.187 110.949 438.842 111.051 438.504 111.257C438.177 111.463 437.911 111.753 437.706 112.128C437.5 112.503 437.397 112.92 437.397 113.379C437.397 113.887 437.494 114.311 437.687 114.649C437.893 114.988 438.207 115.278 438.631 115.52C438.788 115.605 438.969 115.671 439.175 115.72C439.393 115.768 439.58 115.792 439.737 115.792C440.088 115.792 440.529 115.653 441.062 115.375C441.255 115.278 441.418 115.206 441.551 115.157C441.684 115.109 441.823 115.085 441.969 115.085C442.102 115.085 442.253 115.145 442.422 115.266C442.591 115.387 442.676 115.538 442.676 115.72C442.676 116.082 442.507 116.391 442.168 116.645C441.83 116.887 441.412 117.074 440.916 117.207C440.433 117.328 439.967 117.388 439.52 117.388C438.806 117.388 438.141 117.225 437.524 116.899C436.919 116.572 436.436 116.125 436.073 115.556C435.71 114.976 435.529 114.323 435.529 113.597C435.529 112.823 435.704 112.116 436.055 111.475C436.405 110.834 436.877 110.332 437.47 109.969C438.062 109.606 438.709 109.425 439.411 109.425C439.81 109.425 440.221 109.497 440.644 109.642C441.068 109.788 441.424 109.999 441.715 110.277C442.005 110.555 442.15 110.882 442.15 111.257ZM452.468 116.445C452.468 116.711 452.322 116.935 452.032 117.116C451.754 117.298 451.494 117.388 451.252 117.388C450.793 117.388 450.424 117.334 450.146 117.225C449.879 117.104 449.632 116.887 449.402 116.572C449.087 116.85 448.658 117.062 448.114 117.207C447.57 117.34 447.068 117.407 446.608 117.407C445.858 117.407 445.242 117.207 444.758 116.808C444.274 116.397 444.032 115.798 444.032 115.012C444.032 114.673 444.123 114.365 444.304 114.087C444.486 113.797 444.734 113.543 445.048 113.325C445.399 113.095 445.798 112.92 446.245 112.799C446.693 112.666 447.158 112.599 447.642 112.599C447.896 112.599 448.198 112.648 448.549 112.744C448.9 112.841 449.172 112.944 449.366 113.053V112.763C449.366 112.11 449.208 111.662 448.894 111.42C448.579 111.166 448.071 111.039 447.37 111.039C447.164 111.039 446.959 111.082 446.753 111.166C446.56 111.251 446.336 111.366 446.082 111.511C445.743 111.692 445.423 111.783 445.121 111.783C445.012 111.783 444.909 111.71 444.812 111.565C444.715 111.408 444.667 111.269 444.667 111.148C444.667 110.797 444.83 110.495 445.157 110.241C445.495 109.987 445.895 109.8 446.354 109.679C446.814 109.546 447.225 109.479 447.588 109.479C447.951 109.479 448.368 109.552 448.839 109.697C449.311 109.83 449.698 110.017 450 110.259C450.363 110.574 450.641 110.942 450.835 111.366C451.041 111.777 451.143 112.23 451.143 112.726C451.143 112.884 451.131 113.119 451.107 113.434C451.083 113.772 451.071 114.063 451.071 114.305C451.071 114.413 451.059 114.577 451.034 114.794C451.01 115.06 450.998 115.272 450.998 115.429C450.998 115.574 451.053 115.701 451.161 115.81C451.27 115.907 451.397 115.955 451.542 115.955L452.05 115.937C452.183 115.937 452.286 115.986 452.359 116.082C452.431 116.179 452.468 116.3 452.468 116.445ZM446.626 115.974C447.146 115.974 447.582 115.919 447.932 115.81C448.283 115.701 448.706 115.502 449.202 115.212C449.251 115.006 449.281 114.734 449.293 114.395C448.628 114.081 448.078 113.924 447.642 113.924C447.146 113.924 446.705 114.014 446.318 114.196C445.931 114.377 445.737 114.698 445.737 115.157C445.737 115.387 445.834 115.58 446.028 115.738C446.221 115.895 446.421 115.974 446.626 115.974ZM453.746 110.949C453.432 110.731 453.275 110.501 453.275 110.259C453.275 110.09 453.347 109.933 453.492 109.788C453.637 109.642 453.855 109.57 454.145 109.57C454.484 109.57 454.786 109.661 455.052 109.842C455.331 110.011 455.524 110.259 455.633 110.586C455.911 110.259 456.225 109.999 456.576 109.806C456.939 109.612 457.308 109.515 457.683 109.515C458.13 109.515 458.535 109.636 458.898 109.878C459.261 110.12 459.442 110.447 459.442 110.858C459.442 111.088 459.34 111.323 459.134 111.565C458.941 111.807 458.741 111.928 458.535 111.928C458.427 111.928 458.33 111.904 458.245 111.856C458.173 111.795 458.082 111.71 457.973 111.602C457.852 111.481 457.749 111.396 457.665 111.348C457.58 111.287 457.483 111.257 457.374 111.257C457.181 111.257 456.999 111.287 456.83 111.348C456.661 111.408 456.546 111.481 456.485 111.565C456.292 111.868 456.147 112.14 456.05 112.382C455.965 112.624 455.923 112.884 455.923 113.162C455.923 113.367 455.917 113.531 455.905 113.651L455.887 114.686C455.887 114.843 455.893 115.018 455.905 115.212C455.917 115.405 455.929 115.55 455.941 115.647C455.978 115.974 455.996 116.288 455.996 116.59C455.996 116.796 455.917 116.977 455.76 117.135C455.603 117.292 455.409 117.37 455.179 117.37C454.817 117.37 454.55 117.304 454.381 117.171C454.212 117.026 454.127 116.766 454.127 116.391L454.109 115.23C454.097 115 454.091 114.673 454.091 114.25L454.109 113.053C454.133 112.472 454.145 112.001 454.145 111.638C454.145 111.505 454.115 111.384 454.055 111.275C454.006 111.166 453.903 111.057 453.746 110.949ZM467.75 105.96C467.75 106.081 467.732 106.232 467.696 106.413C467.684 106.486 467.671 106.564 467.659 106.649C467.647 106.734 467.635 106.837 467.623 106.958C467.514 108.046 467.46 109.394 467.46 111.003C467.46 112.527 467.526 113.658 467.659 114.395C467.792 115.133 467.998 115.574 468.276 115.72L468.621 115.865C468.802 115.925 468.935 115.992 469.02 116.064C469.117 116.137 469.165 116.258 469.165 116.427C469.165 116.669 469.038 116.881 468.784 117.062C468.53 117.231 468.252 117.316 467.95 117.316C467.635 117.316 467.327 117.189 467.024 116.935C466.722 116.669 466.474 116.336 466.281 115.937C466.075 116.373 465.712 116.723 465.192 116.989C464.672 117.243 464.176 117.37 463.705 117.37C463.281 117.37 462.912 117.316 462.598 117.207C462.284 117.086 461.957 116.905 461.618 116.663C461.207 116.373 460.893 116.004 460.675 115.556C460.47 115.109 460.367 114.619 460.367 114.087C460.367 113.555 460.47 112.992 460.675 112.4C460.881 111.795 461.117 111.299 461.383 110.912C461.697 110.465 462.114 110.132 462.634 109.914C463.154 109.685 463.693 109.57 464.249 109.57C464.563 109.57 464.835 109.63 465.065 109.751C465.295 109.86 465.531 110.017 465.773 110.223C465.773 109.618 465.761 109.11 465.736 108.699C465.724 108.59 465.718 108.463 465.718 108.318C465.718 107.278 465.803 106.456 465.972 105.851C466.105 105.343 466.426 105.089 466.934 105.089C467.212 105.089 467.417 105.15 467.55 105.27C467.684 105.391 467.75 105.621 467.75 105.96ZM462.126 114.051C462.126 114.667 462.326 115.139 462.725 115.466C462.906 115.635 463.058 115.75 463.179 115.81C463.299 115.871 463.451 115.901 463.632 115.901C463.983 115.901 464.315 115.804 464.63 115.611C464.956 115.405 465.21 115.139 465.392 114.812C465.585 114.486 465.682 114.135 465.682 113.76L465.664 111.964C465.41 111.674 465.174 111.475 464.956 111.366C464.751 111.245 464.533 111.184 464.303 111.184C463.529 111.184 462.997 111.481 462.707 112.073C462.55 112.351 462.411 112.666 462.29 113.017C462.181 113.367 462.126 113.712 462.126 114.051Z" fill="white"/>
</g>
<defs>
<linearGradient id="paint0_linear_0_1" x1="282" y1="0" x2="282" y2="377" gradientUnits="userSpaceOnUse">
<stop stop-color="#30F9C9"/>
<stop offset="1" stop-color="#EF9037"/>
</linearGradient>
<clipPath id="clip0_0_1">
<rect width="564" height="377" rx="4" fill="white"/>
</clipPath>
</defs>
</svg>
