<svg width="609" height="414" viewBox="0 0 609 414" fill="none" xmlns="http://www.w3.org/2000/svg">
<path d="M0.470337 15.6247C0.470337 7.34039 7.18607 0.624649 15.4703 0.624649H593.961C602.246 0.624649 608.961 7.34038 608.961 15.6246V398.628C608.961 406.912 602.246 413.628 593.961 413.628H15.4703C7.18608 413.628 0.470337 406.912 0.470337 398.628V15.6247Z" fill="#D9D9D9"/>
<rect x="86.2158" y="65.6246" width="70.1047" height="54.4483" rx="8.94315" fill="#FFC400"/>
<line x1="121.597" y1="65.6245" x2="121.606" y2="120.073" stroke="#764A2A" stroke-width="2"/>
<line x1="156.321" y1="92.8488" x2="86.2158" y2="92.8488" stroke="#764A2A" stroke-width="2"/>
<mask id="path-5-inside-1_63_990" fill="white">
<rect x="112.591" y="86.0961" width="16.0119" height="13.5054" rx="1.78863"/>
</mask>
<rect x="112.591" y="86.0961" width="16.0119" height="13.5054" rx="1.78863" fill="#FFC400" stroke="#764A2A" stroke-width="4" mask="url(#path-5-inside-1_63_990)"/>
<path d="M113.492 86.6708L106.532 81.0675L86.2158 81.0435" stroke="#764A2A" stroke-width="2"/>
<path d="M127.711 87.9533L135.021 82.0679L156.321 81.9941" stroke="#764A2A" stroke-width="2"/>
<path d="M113.939 97.9001L108.176 104.237L86.3503 104.912" stroke="#764A2A" stroke-width="2"/>
<path d="M127.711 98.3915L134.485 104.531L156.321 104.57" stroke="#764A2A" stroke-width="2"/>
</svg>
