<svg width="609" height="658" viewBox="0 0 609 658" fill="none" xmlns="http://www.w3.org/2000/svg">
<path d="M0.345337 15C0.345337 6.71574 7.06107 0 15.3453 0H593.836C602.121 0 608.836 6.71573 608.836 15V398.229C608.836 406.513 602.121 413.229 593.836 413.229H15.3453C7.06108 413.229 0.345337 406.513 0.345337 398.229V15Z" fill="#993399"/>
<path opacity="0.8" d="M0.345337 65C0.345337 56.7157 7.06107 50 15.3453 50H593.836C602.121 50 608.836 56.7157 608.836 65V448.229C608.836 456.513 602.121 463.229 593.836 463.229H15.3453C7.06108 463.229 0.345337 456.513 0.345337 448.229V65Z" fill="#FF7B00"/>
<path d="M0.343872 115C0.343872 106.716 7.0596 100 15.3439 100H593.835C602.119 100 608.835 106.716 608.835 115V498.229C608.835 506.513 602.119 513.229 593.835 513.229H15.3439C7.05961 513.229 0.343872 506.513 0.343872 498.229V115Z" fill="#FCFC34"/>
<path d="M0.343872 165C0.343872 156.716 7.0596 150 15.3439 150H593.835C602.119 150 608.835 156.716 608.835 165V548.229C608.835 556.513 602.119 563.229 593.835 563.229H15.3439C7.05961 563.229 0.343872 556.513 0.343872 548.229V165Z" fill="#0ACDEB"/>
<path d="M0.343872 215C0.343872 206.716 7.0596 200 15.3439 200H593.835C602.119 200 608.835 206.716 608.835 215V598.229C608.835 606.513 602.119 613.229 593.835 613.229H15.3439C7.05961 613.229 0.343872 606.513 0.343872 598.229V215Z" fill="#1E1E1E"/>
<g clip-path="url(#clip0_63_977)">
<rect x="0.163696" y="250" width="609.503" height="407.416" rx="12.9681" fill="url(#paint0_linear_63_977)"/>
<path d="M305.376 657.416C305.376 657.416 338.377 531.441 479.073 492.392C626.048 451.599 621.037 360.743 621.037 360.743" stroke="white" stroke-width="16.2102" stroke-linecap="round"/>
<path d="M346.858 699.683C346.858 699.683 356.884 570.366 495.401 533.346C667.113 487.456 626.214 369.537 626.214 369.537" stroke="white" stroke-width="16.2102" stroke-linecap="round"/>
<path d="M451.16 354.842C449.604 354.842 448.288 354.802 447.21 354.722C446.173 354.603 444.797 354.423 443.081 354.184L443.021 360.468C442.981 361.545 442.961 363.081 442.961 365.076C442.961 366.113 442.662 366.931 442.064 367.53C441.505 368.088 440.867 368.367 440.149 368.367C438.832 368.367 437.854 368.208 437.216 367.889C436.578 367.53 436.259 366.911 436.259 366.033C436.259 364.876 436.358 363.241 436.558 361.126C436.997 356.578 437.216 351.91 437.216 347.122C437.216 342.653 437.076 338.444 436.797 334.494C436.837 333.936 437.116 333.297 437.635 332.579C438.194 331.861 438.892 331.462 439.73 331.382C440.647 331.382 442.104 331.223 444.098 330.904C446.173 330.584 447.749 330.425 448.826 330.425C452.098 330.425 454.631 330.744 456.427 331.382C458.262 332.021 460.097 333.078 461.933 334.554C463.928 337.666 464.925 339.861 464.925 341.137C464.925 343.81 464.386 346.184 463.309 348.259C462.232 350.334 460.656 351.95 458.581 353.107C456.507 354.264 454.033 354.842 451.16 354.842ZM449.784 335.512C448.507 335.512 447.39 335.592 446.432 335.751C445.515 335.871 444.398 336.09 443.081 336.41C443.241 340.08 443.32 342.753 443.32 344.429C443.32 346.145 443.261 347.581 443.141 348.738C444.856 349.097 446.213 349.336 447.21 349.456C448.208 349.536 449.325 349.576 450.562 349.576C453.514 349.576 455.589 348.818 456.786 347.302C458.023 345.746 458.641 343.95 458.641 341.915C458.641 341.317 458.462 340.579 458.102 339.701C457.743 338.823 457.424 338.245 457.145 337.966C456.068 337.008 455.01 336.37 453.973 336.05C452.976 335.691 451.579 335.512 449.784 335.512ZM487.026 330.305C489.699 330.305 492.132 330.644 494.327 331.323C496.521 331.961 498.317 332.918 499.713 334.195C502.226 336.469 503.982 338.963 504.979 341.676C506.017 344.349 506.535 347.78 506.535 351.97C506.535 352.847 506.416 353.645 506.176 354.363C505.977 355.082 505.638 355.999 505.159 357.116C504.56 358.353 504.201 359.331 504.082 360.049C503.284 361.445 501.967 362.782 500.132 364.058C498.336 365.335 496.382 366.373 494.267 367.171C492.152 367.968 490.297 368.367 488.701 368.367C481.001 368.367 475.515 365.734 472.243 360.468C471.326 358.992 470.608 357.455 470.089 355.86C469.61 354.264 469.371 352.708 469.371 351.192C469.371 347.122 470.089 343.591 471.525 340.599C473.002 337.567 475.036 335.213 477.63 333.537C479.186 332.619 480.802 331.861 482.477 331.263C484.193 330.624 485.709 330.305 487.026 330.305ZM475.595 351.371C475.595 353.526 476.074 355.301 477.031 356.697C478.029 358.094 479.545 359.61 481.58 361.246C483.255 361.884 484.392 362.303 484.991 362.502C485.589 362.662 486.267 362.742 487.026 362.742C491.055 362.742 494.267 361.645 496.661 359.45C499.055 357.256 500.252 354.244 500.252 350.414C500.252 347.381 499.912 344.987 499.234 343.232C498.556 341.476 497.339 339.901 495.584 338.504C494.666 337.746 493.489 337.188 492.053 336.828C490.656 336.469 489.14 336.29 487.504 336.29C485.031 336.29 482.896 337.028 481.101 338.504C479.305 339.94 477.929 341.816 476.971 344.13C476.054 346.444 475.595 348.858 475.595 351.371ZM528.715 354.842C527.159 354.842 525.842 354.802 524.765 354.722C523.728 354.603 522.351 354.423 520.636 354.184L520.576 360.468C520.536 361.545 520.516 363.081 520.516 365.076C520.516 366.113 520.217 366.931 519.618 367.53C519.06 368.088 518.421 368.367 517.703 368.367C516.387 368.367 515.409 368.208 514.771 367.889C514.132 367.53 513.813 366.911 513.813 366.033C513.813 364.876 513.913 363.241 514.113 361.126C514.551 356.578 514.771 351.91 514.771 347.122C514.771 342.653 514.631 338.444 514.352 334.494C514.392 333.936 514.671 333.297 515.19 332.579C515.748 331.861 516.447 331.462 517.284 331.382C518.202 331.382 519.658 331.223 521.653 330.904C523.728 330.584 525.304 330.425 526.381 330.425C529.653 330.425 532.186 330.744 533.981 331.382C535.817 332.021 537.652 333.078 539.487 334.554C541.482 337.666 542.48 339.861 542.48 341.137C542.48 343.81 541.941 346.184 540.864 348.259C539.787 350.334 538.211 351.95 536.136 353.107C534.061 354.264 531.588 354.842 528.715 354.842ZM527.339 335.512C526.062 335.512 524.945 335.592 523.987 335.751C523.07 335.871 521.952 336.09 520.636 336.41C520.795 340.08 520.875 342.753 520.875 344.429C520.875 346.145 520.815 347.581 520.696 348.738C522.411 349.097 523.768 349.336 524.765 349.456C525.763 349.536 526.88 349.576 528.117 349.576C531.069 349.576 533.144 348.818 534.341 347.302C535.577 345.746 536.196 343.95 536.196 341.915C536.196 341.317 536.016 340.579 535.657 339.701C535.298 338.823 534.979 338.245 534.7 337.966C533.622 337.008 532.565 336.37 531.528 336.05C530.53 335.691 529.134 335.512 527.339 335.512Z" fill="white"/>
<path d="M471.574 393.809C471.574 394.663 471.137 395.091 470.263 395.091C469.972 395.091 469.729 395.023 469.535 394.887C469.341 394.751 469.128 394.547 468.895 394.275C468.312 393.634 467.807 393.314 467.38 393.314C466.817 393.314 466.264 393.479 465.72 393.809C465.196 394.139 464.769 394.605 464.439 395.207C464.109 395.809 463.944 396.479 463.944 397.217C463.944 398.032 464.099 398.712 464.409 399.255C464.74 399.799 465.244 400.265 465.924 400.653C466.176 400.789 466.468 400.896 466.798 400.974C467.147 401.051 467.448 401.09 467.7 401.09C468.264 401.09 468.972 400.867 469.827 400.42C470.137 400.265 470.399 400.148 470.613 400.071C470.826 399.993 471.05 399.954 471.283 399.954C471.496 399.954 471.739 400.051 472.011 400.245C472.283 400.44 472.419 400.682 472.419 400.974C472.419 401.556 472.147 402.051 471.603 402.459C471.059 402.847 470.39 403.148 469.594 403.362C468.817 403.556 468.069 403.653 467.351 403.653C466.205 403.653 465.138 403.391 464.147 402.867C463.177 402.342 462.4 401.624 461.817 400.711C461.235 399.78 460.944 398.731 460.944 397.566C460.944 396.323 461.225 395.188 461.788 394.159C462.351 393.13 463.109 392.324 464.06 391.741C465.011 391.159 466.05 390.868 467.176 390.868C467.817 390.868 468.477 390.984 469.157 391.217C469.836 391.45 470.409 391.79 470.875 392.236C471.341 392.683 471.574 393.207 471.574 393.809ZM488.138 402.139C488.138 402.566 487.905 402.925 487.439 403.216C486.993 403.507 486.575 403.653 486.187 403.653C485.449 403.653 484.857 403.566 484.41 403.391C483.983 403.197 483.585 402.847 483.216 402.342C482.711 402.789 482.022 403.129 481.148 403.362C480.275 403.575 479.469 403.682 478.731 403.682C477.527 403.682 476.537 403.362 475.761 402.721C474.984 402.061 474.596 401.1 474.596 399.838C474.596 399.294 474.741 398.799 475.032 398.352C475.324 397.886 475.722 397.479 476.227 397.129C476.79 396.76 477.43 396.479 478.149 396.285C478.867 396.071 479.615 395.964 480.391 395.964C480.799 395.964 481.284 396.042 481.847 396.197C482.41 396.353 482.847 396.518 483.158 396.692V396.226C483.158 395.178 482.906 394.46 482.401 394.071C481.896 393.663 481.081 393.46 479.954 393.46C479.624 393.46 479.294 393.528 478.964 393.663C478.654 393.799 478.294 393.984 477.887 394.217C477.343 394.508 476.828 394.654 476.343 394.654C476.168 394.654 476.003 394.537 475.848 394.304C475.693 394.052 475.615 393.829 475.615 393.634C475.615 393.071 475.877 392.586 476.401 392.178C476.945 391.77 477.586 391.469 478.323 391.275C479.061 391.062 479.721 390.955 480.304 390.955C480.886 390.955 481.556 391.071 482.313 391.304C483.071 391.518 483.692 391.819 484.177 392.207C484.76 392.712 485.206 393.304 485.517 393.984C485.847 394.644 486.012 395.372 486.012 396.168C486.012 396.421 485.993 396.799 485.954 397.304C485.915 397.848 485.896 398.314 485.896 398.702C485.896 398.877 485.876 399.139 485.837 399.488C485.799 399.915 485.779 400.255 485.779 400.508C485.779 400.741 485.867 400.944 486.041 401.119C486.216 401.275 486.42 401.352 486.653 401.352L487.468 401.323C487.682 401.323 487.847 401.401 487.963 401.556C488.08 401.711 488.138 401.906 488.138 402.139ZM478.76 401.381C479.595 401.381 480.294 401.294 480.857 401.119C481.42 400.944 482.1 400.624 482.896 400.158C482.974 399.828 483.022 399.391 483.042 398.848C481.974 398.343 481.09 398.09 480.391 398.09C479.595 398.09 478.887 398.236 478.265 398.527C477.644 398.818 477.333 399.333 477.333 400.071C477.333 400.44 477.489 400.75 477.799 401.003C478.11 401.255 478.43 401.381 478.76 401.381ZM490.191 393.314C489.686 392.965 489.434 392.596 489.434 392.207C489.434 391.935 489.55 391.683 489.783 391.45C490.016 391.217 490.366 391.101 490.832 391.101C491.375 391.101 491.861 391.246 492.288 391.537C492.734 391.809 493.045 392.207 493.22 392.732C493.666 392.207 494.171 391.79 494.734 391.479C495.317 391.169 495.909 391.013 496.511 391.013C497.229 391.013 497.88 391.207 498.462 391.596C499.045 391.984 499.336 392.508 499.336 393.168C499.336 393.537 499.171 393.916 498.841 394.304C498.53 394.693 498.21 394.887 497.88 394.887C497.705 394.887 497.55 394.848 497.414 394.77C497.297 394.673 497.152 394.537 496.977 394.362C496.783 394.168 496.618 394.032 496.482 393.955C496.346 393.858 496.191 393.809 496.016 393.809C495.705 393.809 495.414 393.858 495.142 393.955C494.87 394.052 494.686 394.168 494.589 394.304C494.278 394.79 494.045 395.226 493.89 395.615C493.754 396.003 493.686 396.421 493.686 396.867C493.686 397.197 493.676 397.459 493.657 397.653L493.628 399.314C493.628 399.566 493.637 399.847 493.657 400.158C493.676 400.469 493.696 400.702 493.715 400.857C493.773 401.381 493.802 401.886 493.802 402.372C493.802 402.702 493.676 402.993 493.424 403.245C493.171 403.498 492.861 403.624 492.492 403.624C491.909 403.624 491.482 403.517 491.21 403.304C490.938 403.071 490.803 402.653 490.803 402.051L490.773 400.187C490.754 399.818 490.744 399.294 490.744 398.615L490.773 396.692C490.812 395.76 490.832 395.003 490.832 394.421C490.832 394.207 490.783 394.013 490.686 393.838C490.608 393.663 490.443 393.489 490.191 393.314ZM512.673 385.305C512.673 385.499 512.644 385.742 512.586 386.033C512.567 386.15 512.547 386.276 512.528 386.412C512.508 386.548 512.489 386.713 512.469 386.907C512.295 388.654 512.207 390.819 512.207 393.401C512.207 395.848 512.314 397.663 512.528 398.848C512.741 400.032 513.071 400.741 513.518 400.974L514.071 401.207C514.362 401.304 514.576 401.41 514.712 401.527C514.867 401.643 514.945 401.838 514.945 402.109C514.945 402.498 514.741 402.838 514.333 403.129C513.926 403.401 513.479 403.536 512.994 403.536C512.489 403.536 511.994 403.333 511.508 402.925C511.023 402.498 510.625 401.964 510.314 401.323C509.984 402.022 509.402 402.585 508.567 403.012C507.732 403.42 506.936 403.624 506.179 403.624C505.499 403.624 504.907 403.536 504.402 403.362C503.897 403.168 503.373 402.876 502.829 402.488C502.169 402.022 501.664 401.43 501.315 400.711C500.985 399.993 500.82 399.207 500.82 398.352C500.82 397.498 500.985 396.595 501.315 395.644C501.645 394.673 502.024 393.877 502.451 393.256C502.956 392.537 503.625 392.003 504.46 391.654C505.295 391.285 506.159 391.101 507.052 391.101C507.557 391.101 507.994 391.198 508.363 391.392C508.732 391.567 509.11 391.819 509.499 392.149C509.499 391.178 509.479 390.363 509.441 389.703C509.421 389.528 509.411 389.324 509.411 389.091C509.411 387.421 509.547 386.101 509.819 385.13C510.033 384.315 510.547 383.907 511.363 383.907C511.809 383.907 512.139 384.004 512.353 384.198C512.567 384.392 512.673 384.761 512.673 385.305ZM503.645 398.294C503.645 399.284 503.965 400.042 504.606 400.566C504.897 400.838 505.14 401.022 505.334 401.119C505.528 401.216 505.771 401.265 506.062 401.265C506.625 401.265 507.159 401.11 507.664 400.799C508.188 400.469 508.596 400.042 508.887 399.517C509.198 398.993 509.353 398.43 509.353 397.828L509.324 394.945C508.916 394.479 508.538 394.159 508.188 393.984C507.858 393.79 507.509 393.693 507.14 393.693C505.897 393.693 505.043 394.168 504.577 395.12C504.324 395.566 504.101 396.071 503.907 396.634C503.732 397.197 503.645 397.751 503.645 398.294Z" fill="white"/>
<rect x="93.8049" y="320.255" width="75.7607" height="58.8412" rx="9.66467" fill="#FFC400"/>
<line x1="132.04" y1="320.255" x2="132.05" y2="379.096" stroke="#764A2A" stroke-width="2.16136"/>
<line x1="169.566" y1="349.676" x2="93.8049" y2="349.676" stroke="#764A2A" stroke-width="2.16136"/>
<mask id="path-15-inside-1_63_977" fill="white">
<rect x="122.308" y="342.378" width="17.3037" height="14.595" rx="1.93293"/>
</mask>
<rect x="122.308" y="342.378" width="17.3037" height="14.595" rx="1.93293" fill="#FFC400" stroke="#764A2A" stroke-width="4.32271" mask="url(#path-15-inside-1_63_977)"/>
<path d="M123.282 342.999L115.76 336.944L93.805 336.918" stroke="#764A2A" stroke-width="2.16136"/>
<path d="M138.648 344.385L146.548 338.025L169.565 337.945" stroke="#764A2A" stroke-width="2.16136"/>
<path d="M123.765 355.135L117.536 361.982L93.9499 362.712" stroke="#764A2A" stroke-width="2.16136"/>
<path d="M138.648 355.666L145.968 362.3L169.565 362.343" stroke="#764A2A" stroke-width="2.16136"/>
</g>
<defs>
<linearGradient id="paint0_linear_63_977" x1="304.915" y1="250" x2="304.915" y2="657.416" gradientUnits="userSpaceOnUse">
<stop stop-color="#30F9C9"/>
<stop offset="1" stop-color="#EF9037"/>
</linearGradient>
<clipPath id="clip0_63_977">
<rect x="0.163696" y="250" width="608.5" height="407.416" rx="4.32271" fill="white"/>
</clipPath>
</defs>
</svg>
